<svg width="167" height="32" viewBox="0 0 167 32" fill="none" xmlns="http://www.w3.org/2000/svg">
<path d="M1.43111 25.5V11.3182H5.94602V25.5H1.43111ZM3.69318 9.66548C3.05919 9.66548 2.51444 9.4562 2.05895 9.03764C1.60346 8.61293 1.37571 8.10204 1.37571 7.50497C1.37571 6.91406 1.60346 6.40933 2.05895 5.99077C2.51444 5.56605 3.05919 5.35369 3.69318 5.35369C4.33333 5.35369 4.87808 5.56605 5.32742 5.99077C5.78291 6.40933 6.01065 6.91406 6.01065 7.50497C6.01065 8.10204 5.78291 8.61293 5.32742 9.03764C4.87808 9.4562 4.33333 9.66548 3.69318 9.66548ZM12.3715 21.7791L12.39 16.3963H13.0178L17.0065 11.3182H22.1215L16.194 18.5938H15.0029L12.3715 21.7791ZM8.29978 25.5V6.59091H12.8147V25.5H8.29978ZM17.108 25.5L13.3964 19.6094L16.3694 16.4055L22.3246 25.5H17.108ZM29.2626 25.7678C27.7791 25.7678 26.4988 25.4754 25.4216 24.8906C24.3506 24.2997 23.5258 23.4595 22.9472 22.37C22.3748 21.2744 22.0886 19.9725 22.0886 18.4645C22.0886 16.9995 22.3778 15.7192 22.9564 14.6236C23.535 13.5218 24.3506 12.6662 25.4032 12.0568C26.4557 11.4413 27.696 11.1335 29.1241 11.1335C30.1335 11.1335 31.0568 11.2905 31.8939 11.6044C32.7311 11.9183 33.4543 12.383 34.0637 12.9986C34.6731 13.6141 35.147 14.3743 35.4856 15.2791C35.8241 16.1778 35.9934 17.2088 35.9934 18.3722V19.4986H23.6674V16.8764H31.7924C31.7862 16.3963 31.6724 15.9685 31.4508 15.593C31.2292 15.2176 30.9245 14.9252 30.5367 14.7159C30.1551 14.5005 29.715 14.3928 29.2164 14.3928C28.7117 14.3928 28.2592 14.5066 27.8591 14.7344C27.4591 14.956 27.1421 15.2607 26.9082 15.6484C26.6743 16.0301 26.5511 16.464 26.5388 16.9503V19.6186C26.5388 20.1972 26.6527 20.705 26.8805 21.142C27.1082 21.5729 27.4314 21.9084 27.8499 22.1484C28.2685 22.3885 28.7671 22.5085 29.3457 22.5085C29.7457 22.5085 30.1089 22.4531 30.4351 22.3423C30.7614 22.2315 31.0414 22.0684 31.2753 21.853C31.5092 21.6375 31.6847 21.3729 31.8016 21.0589L35.9472 21.179C35.7749 22.1084 35.3963 22.9179 34.8116 23.6072C34.233 24.2905 33.4728 24.8229 32.531 25.2045C31.5893 25.58 30.4998 25.7678 29.2626 25.7678ZM37.7793 25.5V11.3182H42.0726V13.9219H42.2296C42.525 13.0601 43.0236 12.38 43.7253 11.8814C44.427 11.3828 45.2642 11.1335 46.2367 11.1335C47.2215 11.1335 48.0648 11.3859 48.7665 11.8906C49.4682 12.3954 49.9145 13.0724 50.1053 13.9219H50.253C50.5177 13.0786 51.0348 12.4046 51.8042 11.8999C52.5736 11.389 53.4815 11.1335 54.5279 11.1335C55.8697 11.1335 56.9592 11.5644 57.7964 12.4261C58.6335 13.2817 59.052 14.4574 59.052 15.9531V25.5H54.5371V16.9872C54.5371 16.2794 54.3555 15.7408 53.9924 15.3714C53.6292 14.996 53.1583 14.8082 52.5797 14.8082C51.9581 14.8082 51.4687 15.0114 51.1117 15.4176C50.7608 15.8177 50.5854 16.3563 50.5854 17.0334V25.5H46.2459V16.9411C46.2459 16.2824 46.0674 15.7623 45.7104 15.3807C45.3534 14.9991 44.8825 14.8082 44.2978 14.8082C43.9038 14.8082 43.5561 14.9036 43.2545 15.0945C42.9528 15.2791 42.7159 15.5438 42.5435 15.8885C42.3773 16.2332 42.2942 16.6394 42.2942 17.1072V25.5H37.7793ZM61.3296 25.5V6.59091H65.8445V13.7464H65.9369C66.1215 13.3156 66.3831 12.9001 66.7217 12.5C67.0664 12.0999 67.5034 11.7737 68.0327 11.5213C68.5683 11.2628 69.2084 11.1335 69.9532 11.1335C70.938 11.1335 71.8583 11.392 72.7139 11.9091C73.5756 12.4261 74.2711 13.2232 74.8005 14.3004C75.3299 15.3776 75.5945 16.7502 75.5945 18.4183C75.5945 20.0249 75.3391 21.3698 74.8282 22.4531C74.3235 23.5365 73.6402 24.349 72.7785 24.8906C71.9229 25.4323 70.9719 25.7031 69.9255 25.7031C69.2115 25.7031 68.5929 25.5862 68.0697 25.3523C67.5465 25.1184 67.1064 24.8106 66.7494 24.429C66.3985 24.0473 66.1277 23.638 65.9369 23.201H65.7984V25.5H61.3296ZM65.7522 18.4091C65.7522 19.1723 65.8538 19.8371 66.0569 20.4034C66.2662 20.9697 66.5647 21.4098 66.9525 21.7237C67.3464 22.0315 67.8173 22.1854 68.3651 22.1854C68.9191 22.1854 69.39 22.0315 69.7778 21.7237C70.1656 21.4098 70.4579 20.9697 70.6549 20.4034C70.858 19.8371 70.9596 19.1723 70.9596 18.4091C70.9596 17.6458 70.858 16.9841 70.6549 16.424C70.4579 15.8639 70.1656 15.4299 69.7778 15.1222C69.3961 14.8144 68.9253 14.6605 68.3651 14.6605C67.8112 14.6605 67.3403 14.8113 66.9525 15.1129C66.5647 15.4145 66.2662 15.8454 66.0569 16.4055C65.8538 16.9657 65.7522 17.6335 65.7522 18.4091ZM81.4384 25.7401C80.5335 25.7401 79.7303 25.5893 79.0286 25.2876C78.333 24.9799 77.7821 24.5182 77.3759 23.9027C76.9758 23.281 76.7757 22.5024 76.7757 21.5668C76.7757 20.7789 76.9142 20.1141 77.1912 19.5724C77.4682 19.0308 77.8498 18.5907 78.3361 18.2521C78.8224 17.9136 79.3825 17.6581 80.0165 17.4858C80.6505 17.3073 81.3276 17.1873 82.0477 17.1257C82.8541 17.0518 83.5035 16.9749 83.9959 16.8949C84.4883 16.8087 84.8453 16.6887 85.0669 16.5348C85.2947 16.3748 85.4085 16.1501 85.4085 15.8608V15.8146C85.4085 15.3407 85.2454 14.9744 84.9192 14.7159C84.5929 14.4574 84.1528 14.3281 83.5989 14.3281C83.0018 14.3281 82.5217 14.4574 82.1585 14.7159C81.7954 14.9744 81.5645 15.3314 81.4661 15.7869L77.302 15.6392C77.4251 14.7775 77.7421 14.008 78.253 13.331C78.77 12.6477 79.4779 12.1122 80.3766 11.7244C81.2814 11.3305 82.3678 11.1335 83.6358 11.1335C84.5406 11.1335 85.3747 11.2412 86.1379 11.4567C86.9012 11.666 87.566 11.9737 88.1322 12.38C88.6985 12.7801 89.1356 13.2725 89.4433 13.8572C89.7572 14.442 89.9142 15.1098 89.9142 15.8608V25.5H85.667V23.5241H85.5563C85.3039 24.0043 84.9807 24.4105 84.5868 24.7429C84.199 25.0753 83.7404 25.3246 83.2111 25.4908C82.6879 25.657 82.097 25.7401 81.4384 25.7401ZM82.8325 22.7855C83.3188 22.7855 83.7558 22.687 84.1436 22.4901C84.5375 22.2931 84.8515 22.0223 85.0854 21.6776C85.3193 21.3267 85.4362 20.9205 85.4362 20.4588V19.1108C85.307 19.1785 85.15 19.2401 84.9653 19.2955C84.7868 19.3509 84.5899 19.4032 84.3744 19.4524C84.159 19.5017 83.9374 19.5447 83.7097 19.5817C83.4819 19.6186 83.2634 19.6525 83.0541 19.6832C82.6294 19.7509 82.2662 19.8556 81.9646 19.9972C81.6692 20.1387 81.4414 20.3234 81.2814 20.5511C81.1275 20.7727 81.0506 21.0374 81.0506 21.3452C81.0506 21.813 81.2168 22.17 81.5491 22.4162C81.8877 22.6624 82.3155 22.7855 82.8325 22.7855ZM96.2266 21.7791L96.2451 16.3963H96.8729L100.862 11.3182H105.977L100.049 18.5938H98.858L96.2266 21.7791ZM92.1549 25.5V6.59091H96.6698V25.5H92.1549ZM100.963 25.5L97.2514 19.6094L100.224 16.4055L106.18 25.5H100.963ZM109.722 25.5L106.029 11.3182H110.562L112.474 20.4034H112.594L114.643 11.3182H119.066L121.171 20.3388H121.291L123.147 11.3182H127.68L123.978 25.5H119.149L116.933 17.2365H116.776L114.56 25.5H109.722ZM135.297 25.7678C133.813 25.7678 132.533 25.4754 131.456 24.8906C130.385 24.2997 129.56 23.4595 128.982 22.37C128.409 21.2744 128.123 19.9725 128.123 18.4645C128.123 16.9995 128.412 15.7192 128.991 14.6236C129.569 13.5218 130.385 12.6662 131.437 12.0568C132.49 11.4413 133.73 11.1335 135.158 11.1335C136.168 11.1335 137.091 11.2905 137.928 11.6044C138.765 11.9183 139.489 12.383 140.098 12.9986C140.707 13.6141 141.181 14.3743 141.52 15.2791C141.858 16.1778 142.028 17.2088 142.028 18.3722V19.4986H129.702V16.8764H137.827C137.821 16.3963 137.707 15.9685 137.485 15.593C137.263 15.2176 136.959 14.9252 136.571 14.7159C136.189 14.5005 135.749 14.3928 135.251 14.3928C134.746 14.3928 134.294 14.5066 133.893 14.7344C133.493 14.956 133.176 15.2607 132.942 15.6484C132.709 16.0301 132.585 16.464 132.573 16.9503V19.6186C132.573 20.1972 132.687 20.705 132.915 21.142C133.142 21.5729 133.466 21.9084 133.884 22.1484C134.303 22.3885 134.801 22.5085 135.38 22.5085C135.78 22.5085 136.143 22.4531 136.469 22.3423C136.796 22.2315 137.076 22.0684 137.31 21.853C137.544 21.6375 137.719 21.3729 137.836 21.0589L141.982 21.179C141.809 22.1084 141.431 22.9179 140.846 23.6072C140.267 24.2905 139.507 24.8229 138.565 25.2045C137.624 25.58 136.534 25.7678 135.297 25.7678ZM143.814 25.5V11.3182H148.107V13.9219H148.264C148.559 13.0601 149.058 12.38 149.76 11.8814C150.461 11.3828 151.298 11.1335 152.271 11.1335C153.256 11.1335 154.099 11.3859 154.801 11.8906C155.503 12.3954 155.949 13.0724 156.14 13.9219H156.287C156.552 13.0786 157.069 12.4046 157.838 11.8999C158.608 11.389 159.516 11.1335 160.562 11.1335C161.904 11.1335 162.994 11.5644 163.831 12.4261C164.668 13.2817 165.086 14.4574 165.086 15.9531V25.5H160.571V16.9872C160.571 16.2794 160.39 15.7408 160.027 15.3714C159.664 14.996 159.193 14.8082 158.614 14.8082C157.992 14.8082 157.503 15.0114 157.146 15.4176C156.795 15.8177 156.62 16.3563 156.62 17.0334V25.5H152.28V16.9411C152.28 16.2824 152.102 15.7623 151.745 15.3807C151.388 14.9991 150.917 14.8082 150.332 14.8082C149.938 14.8082 149.59 14.9036 149.289 15.0945C148.987 15.2791 148.75 15.5438 148.578 15.8885C148.412 16.2332 148.329 16.6394 148.329 17.1072V25.5H143.814Z" fill="#151144"/>
</svg>
