<svg width="49" height="48" viewBox="0 0 49 48" fill="none" xmlns="http://www.w3.org/2000/svg">
<path d="M8.05211 42.7962L4.28186 0.507065H45.7119L41.9379 42.7898L24.9717 47.4934L8.05211 42.7962Z" fill="#1572B6"/>
<path d="M24.9972 43.8983L38.7068 40.0973L41.9322 3.96451H24.9972V43.8983Z" fill="#33A9DC"/>
<path d="M24.9972 19.2859H31.8604L32.3344 13.9748H24.9972V8.78813H38.0029L37.8784 10.1798L36.6034 24.4725H24.9972V19.2859Z" fill="white"/>
<path d="M25.0279 32.7559L25.0051 32.7626L19.2289 31.203L18.8596 27.0664H13.6538L14.3802 35.2102L25.0043 38.1589L25.0279 38.1521V32.7559Z" fill="#EBEBEB"/>
<path d="M31.4195 24.2531L30.7948 31.1989L25.01 32.7604V38.1566L35.6428 35.2099L35.7208 34.3335L36.623 24.2531H31.4195Z" fill="white"/>
<path d="M25.0148 8.78813V13.9748H12.4868L12.383 12.8093L12.1467 10.1798L12.0226 8.78813H25.0148ZM24.9972 19.2866V24.4733H19.2938L19.19 23.3078L18.9533 20.6783L18.8296 19.2866H24.9972Z" fill="#EBEBEB"/>
</svg>
