<svg width="33" height="48" viewBox="0 0 33 48" fill="none" xmlns="http://www.w3.org/2000/svg">
<path d="M8.26422 48.0001C12.6802 48.0001 16.2642 44.4161 16.2642 40.0001V32.0001H8.26422C3.84822 32.0001 0.264221 35.5841 0.264221 40.0001C0.264221 44.4161 3.84822 48.0001 8.26422 48.0001Z" fill="#0ACF83"/>
<path d="M0.264221 24C0.264221 19.584 3.84822 16 8.26422 16H16.2642V32H8.26422C3.84822 32 0.264221 28.416 0.264221 24Z" fill="#A259FF"/>
<path d="M0.264282 8C0.264282 3.584 3.84828 0 8.26428 0H16.2643V16H8.26428C3.84828 16 0.264282 12.416 0.264282 8Z" fill="#F24E1E"/>
<path d="M16.2642 0H24.2642C28.6802 0 32.2642 3.584 32.2642 8C32.2642 12.416 28.6802 16 24.2642 16H16.2642V0Z" fill="#FF7262"/>
<path d="M32.2642 24C32.2642 28.416 28.6802 32 24.2642 32C19.8482 32 16.2642 28.416 16.2642 24C16.2642 19.584 19.8482 16 24.2642 16C28.6802 16 32.2642 19.584 32.2642 24Z" fill="#1ABCFE"/>
</svg>
