<svg width="115" height="48" viewBox="0 0 115 48" fill="none" xmlns="http://www.w3.org/2000/svg">
<path d="M68.2572 16.5396C65.7697 16.5396 63.9172 17.7609 63.9172 20.7005C63.9172 22.9151 65.1381 24.4529 68.123 24.4529C70.6532 24.4529 72.3719 22.9618 72.3719 20.6085C72.3719 17.9418 70.8341 16.5396 68.2572 16.5396ZM63.2839 37.2956C62.695 38.0178 62.1083 38.7858 62.1083 39.6911C62.1083 41.4987 64.4132 42.0427 67.5795 42.0427C70.2017 42.0427 73.7741 41.8587 73.7741 39.4205C73.7741 37.9711 72.0555 37.8818 69.8839 37.7458L63.2839 37.2956ZM76.6675 16.676C77.4799 17.716 78.3404 19.1636 78.3404 21.2431C78.3404 26.2618 74.4066 29.2005 68.7106 29.2005C67.2621 29.2005 65.951 29.02 65.1381 28.7942L63.6452 31.1898L68.0759 31.4609C75.899 31.9596 80.5092 32.1863 80.5092 38.1974C80.5092 43.3983 75.9439 46.3356 68.0759 46.3356C59.8923 46.3356 56.7723 44.2556 56.7723 40.684C56.7723 38.6494 57.6768 37.5662 59.2595 36.0716C57.767 35.4409 57.2701 34.3111 57.2701 33.0894C57.2701 32.0938 57.767 31.1902 58.5821 30.3302C59.3955 29.4725 60.2995 28.6125 61.3848 27.6178C59.1697 26.5325 57.4959 24.1814 57.4959 20.8347C57.4959 15.636 60.9328 12.0654 67.8492 12.0654C69.7941 12.0654 70.9701 12.244 72.0101 12.5174H80.8279V16.3591L76.6675 16.676ZM88.7826 8.45958C86.2048 8.45958 84.7128 6.96625 84.7128 4.38803C84.7128 1.81336 86.2044 0.410248 88.7826 0.410248C91.4048 0.410248 92.8972 1.81336 92.8972 4.38803C92.8972 6.96625 91.4052 8.45958 88.7826 8.45958ZM82.9488 35.6316V32.0614L85.2555 31.7458C85.8888 31.6547 85.9786 31.5196 85.9786 30.84V17.5467C85.9786 17.0507 85.8435 16.7325 85.3897 16.5982L82.9488 15.7382L83.4457 12.0769H92.8061V30.84C92.8061 31.5645 92.8497 31.6547 93.5301 31.7463L95.8359 32.0618V35.6316H82.9488ZM113.716 33.8787C111.771 34.8276 108.923 35.6867 106.345 35.6867C100.964 35.6867 98.9306 33.5187 98.9306 28.4067V16.5618C98.9306 16.2907 98.9306 16.1098 98.5675 16.1098H95.403V12.0845C99.383 11.6311 100.964 9.6418 101.462 4.71336H105.758V11.1356C105.758 11.4511 105.758 11.5876 106.12 11.5876H112.495V16.1089H105.758V26.9147C105.758 29.5822 106.391 30.6214 108.832 30.6214C110.099 30.6214 111.409 30.3058 112.494 29.8987L113.716 33.8787Z" fill="#2F2707"/>
<path d="M46.7217 22.0133L26.0479 1.34084C25.7648 1.05763 25.4286 0.832962 25.0586 0.679683C24.6887 0.526403 24.2921 0.44751 23.8917 0.44751C23.4912 0.44751 23.0947 0.526403 22.7247 0.679683C22.3547 0.832962 22.0186 1.05763 21.7354 1.34084L17.4425 5.63417L22.8883 11.0795C23.5284 10.8618 24.2167 10.8277 24.8752 10.9811C25.5337 11.1346 26.1361 11.4693 26.6141 11.9475C27.0947 12.4287 27.4302 13.0354 27.5824 13.6982C27.7345 14.3611 27.6971 15.0533 27.4745 15.696L32.7221 20.9444C33.9919 20.5071 35.4572 20.7902 36.471 21.8057C36.808 22.1426 37.0754 22.5425 37.2578 22.9827C37.4403 23.4229 37.5342 23.8948 37.5342 24.3713C37.5342 24.8478 37.4403 25.3196 37.2578 25.7598C37.0754 26.2001 36.808 26.6 36.471 26.9368C35.878 27.5304 35.0976 27.9001 34.2627 27.983C33.4278 28.066 32.59 27.857 31.8918 27.3917C31.1936 26.9264 30.6783 26.2335 30.4335 25.431C30.1887 24.6285 30.2296 23.7659 30.5492 22.9902L25.655 18.096L25.6545 30.976C26.0093 31.1514 26.3334 31.3831 26.6141 31.6622C26.9511 31.9991 27.2185 32.3992 27.4009 32.8394C27.5833 33.2797 27.6772 33.7516 27.6772 34.2282C27.6772 34.7047 27.5833 35.1766 27.4009 35.6169C27.2185 36.0572 26.9511 36.4572 26.6141 36.7942C25.1963 38.212 22.8985 38.212 21.483 36.7942C21.0601 36.3716 20.7482 35.851 20.5749 35.2788C20.4017 34.7066 20.3726 34.1005 20.4901 33.5143C20.6076 32.9281 20.8682 32.38 21.2486 31.9188C21.629 31.4576 22.1174 31.0975 22.6705 30.8706V17.8706C22.2256 17.6889 21.8217 17.4196 21.483 17.0786C20.4092 16.0062 20.151 14.4306 20.7012 13.112L15.3332 7.74306L1.15809 21.9173C0.874838 22.2005 0.650146 22.5368 0.496848 22.9069C0.34355 23.2769 0.264648 23.6736 0.264648 24.0742C0.264648 24.4747 0.34355 24.8714 0.496848 25.2415C0.650146 25.6116 0.874838 25.9478 1.15809 26.2311L21.8319 46.9039C22.4038 47.4757 23.1794 47.7969 23.9881 47.7969C24.7968 47.7969 25.5724 47.4757 26.1443 46.9039L46.7217 26.3275C47.2935 25.7553 47.6148 24.9794 47.6148 24.1704C47.6148 23.3614 47.2935 22.5855 46.7217 22.0133Z" fill="#DE4C36"/>
</svg>
