<svg width="49" height="48" viewBox="0 0 49 48" fill="none" xmlns="http://www.w3.org/2000/svg">
<path d="M24.0421 4C21.4157 4 18.815 4.51732 16.3884 5.52241C13.9619 6.5275 11.7572 8.00069 9.89998 9.85786C6.14925 13.6086 4.04211 18.6957 4.04211 24C4.04211 32.84 9.78211 40.34 17.7221 43C18.7221 43.16 19.0421 42.54 19.0421 42V38.62C13.5021 39.82 12.3221 35.94 12.3221 35.94C11.4021 33.62 10.1021 33 10.1021 33C8.28211 31.76 10.2421 31.8 10.2421 31.8C12.2421 31.94 13.3021 33.86 13.3021 33.86C15.0421 36.9 17.9821 36 19.1221 35.52C19.3021 34.22 19.8221 33.34 20.3821 32.84C15.9421 32.34 11.2821 30.62 11.2821 23C11.2821 20.78 12.0421 19 13.3421 17.58C13.1421 17.08 12.4421 15 13.5421 12.3C13.5421 12.3 15.2221 11.76 19.0421 14.34C20.6221 13.9 22.3421 13.68 24.0421 13.68C25.7421 13.68 27.4621 13.9 29.0421 14.34C32.8621 11.76 34.5421 12.3 34.5421 12.3C35.6421 15 34.9421 17.08 34.7421 17.58C36.0421 19 36.8021 20.78 36.8021 23C36.8021 30.64 32.1221 32.32 27.6621 32.82C28.3821 33.44 29.0421 34.66 29.0421 36.52V42C29.0421 42.54 29.3621 43.18 30.3821 43C38.3221 40.32 44.0421 32.84 44.0421 24C44.0421 21.3736 43.5248 18.7728 42.5197 16.3463C41.5146 13.9198 40.0414 11.715 38.1842 9.85786C36.3271 8.00069 34.1223 6.5275 31.6958 5.52241C29.2693 4.51732 26.6686 4 24.0421 4Z" fill="black"/>
</svg>
