<svg width="35" height="48" viewBox="0 0 35 48" fill="none" xmlns="http://www.w3.org/2000/svg">
<path d="M34.9377 9.40933L31.8474 44.0278L17.9567 47.8787L4.10424 44.0332L1.01721 9.40933H34.9377Z" fill="#E44D26"/>
<path d="M17.9774 44.9352L29.2018 41.8234L31.8425 12.2402H17.9774V44.9352Z" fill="#F16529"/>
<path d="M11.9701 20.7334H17.9774V16.4869H7.32922L7.43081 17.6262L8.47458 29.3283H17.9774V25.0819H12.3582L11.9701 20.7334ZM12.9271 31.4516H8.66432L9.2592 38.1192L17.9578 40.5339L17.9774 40.5286V36.1104L17.9588 36.1153L13.2295 34.8384L12.9271 31.4516Z" fill="#EBEBEB"/>
<path d="M4.1731 1.52588e-05H6.3311V2.13209H8.30522V1.52588e-05H10.4634V6.45648H8.30535V4.29449H6.33123V6.45648H4.17323L4.1731 1.52588e-05ZM13.3011 2.14113H11.4015V1.52588e-05H17.3602V2.14113H15.4595V6.45648H13.3015V2.14113H13.3011ZM18.3058 1.52588e-05H20.556L21.9401 2.26865L23.323 1.52588e-05H25.574V6.45648H23.4248V3.2563L21.9401 5.55193H21.9029L20.4173 3.2563V6.45648H18.3058V1.52588e-05ZM26.648 1.52588e-05H28.8067V4.32241H31.8414V6.45648H26.6479V1.52588e-05H26.648Z" fill="black"/>
<path d="M17.9628 29.3283H23.1919L22.6988 34.8357L17.9626 36.114V40.5319L26.6682 38.1192L26.732 37.4018L27.73 26.2222L27.8336 25.0819H17.9628V29.3283ZM17.9628 20.723V20.7334H28.22L28.3051 19.779L28.4987 17.6262L28.6002 16.4869H17.9628V20.723Z" fill="white"/>
</svg>
