<svg width="49" height="48" viewBox="0 0 49 48" fill="none" xmlns="http://www.w3.org/2000/svg">
<path d="M1.52478 0.527985H48.4688V47.4724H1.52478V0.527985Z" fill="#F0DB4F"/>
<path d="M44.6269 36.276C44.283 34.1344 42.8865 32.3355 38.7499 30.6582C37.3129 29.9978 35.7109 29.5249 35.2335 28.4359C35.064 27.8022 35.0415 27.4452 35.1488 27.0615C35.4567 25.8165 36.9428 25.4284 38.1207 25.7854C38.8793 26.0397 39.5974 26.6243 40.0305 27.5569C42.0563 26.2452 42.0522 26.2538 43.4667 25.3523C42.9488 24.5494 42.6724 24.1789 42.3334 23.8354C41.115 22.4745 39.4549 21.7737 36.7999 21.8273L35.4169 22.0062C34.0917 22.341 32.8287 23.0367 32.088 23.9693C29.8658 26.4908 30.4995 30.9038 33.2037 32.7199C35.8677 34.7194 39.7812 35.1743 40.281 37.044C40.7674 39.333 38.5988 40.074 36.4433 39.8108C34.8548 39.4804 33.9713 38.673 33.0162 37.2049C31.2582 38.2223 31.2582 38.2223 29.4507 39.2618C29.8793 40.1989 30.3297 40.623 31.0482 41.4349C34.4487 44.8842 42.9582 44.7147 44.4844 39.4939C44.5463 39.3147 44.9573 38.1192 44.6269 36.276ZM27.045 22.1037H22.6542L22.6362 33.4557C22.6362 35.8699 22.761 38.0832 22.3684 38.7615C21.726 40.0958 20.0614 39.9304 19.3028 39.6717C18.5307 39.2922 18.138 38.7525 17.6832 37.9898C17.5583 37.7708 17.4645 37.6013 17.433 37.5882L13.863 39.7744C14.4567 40.9928 15.3312 42.0503 16.4513 42.7373C18.1245 43.7415 20.3734 44.0494 22.7254 43.5094C24.2562 43.0635 25.5769 42.1399 26.2684 40.734C27.2682 38.8909 27.0537 36.66 27.0447 34.1925C27.0672 30.1669 27.045 26.142 27.045 22.1037Z" fill="#323330"/>
</svg>
