<svg width="80" height="48" viewBox="0 0 80 48" fill="none" xmlns="http://www.w3.org/2000/svg">
<path d="M39.6885 47.8615C39.4235 47.8615 39.1762 47.7909 38.9464 47.6672L36.5967 46.2715C36.2433 46.0771 36.42 46.0064 36.5261 45.9711C37.0031 45.8122 37.0914 45.7767 37.5861 45.4942C37.6391 45.4587 37.7099 45.4765 37.7628 45.5118L39.5649 46.5895C39.6356 46.6248 39.7239 46.6248 39.7768 46.5895L46.8262 42.5083C46.8969 42.4729 46.9323 42.4022 46.9323 42.314V34.1693C46.9323 34.0807 46.8969 34.0103 46.8262 33.9748L39.7768 29.9113C39.7062 29.8758 39.6178 29.8758 39.5649 29.9113L32.5155 33.9748C32.4449 34.0101 32.4094 34.0985 32.4094 34.1691V42.3138C32.4094 42.3846 32.4449 42.4728 32.5155 42.5083L34.4413 43.6213C35.4837 44.1513 36.1374 43.5329 36.1374 42.9146V34.8758C36.1374 34.7699 36.2257 34.6638 36.3494 34.6638H37.2504C37.3565 34.6638 37.4624 34.7521 37.4624 34.8758V42.9146C37.4624 44.3102 36.7027 45.123 35.3776 45.123C34.9713 45.123 34.6533 45.123 33.7522 44.6813L31.8972 43.6213C31.4378 43.3564 31.1552 42.8615 31.1552 42.3315V34.1868C31.1552 33.6568 31.4378 33.162 31.8972 32.8971L38.9464 28.8159C39.3882 28.5685 39.989 28.5685 40.4306 28.8159L47.4799 32.8971C47.9393 33.162 48.2221 33.6568 48.2221 34.1868V42.3315C48.2221 42.8615 47.9393 43.3564 47.4799 43.6213L40.4306 47.7025C40.2009 47.8086 39.9358 47.8615 39.6885 47.8615ZM41.8616 42.2609C38.7699 42.2609 38.1338 40.8475 38.1338 39.6461C38.1338 39.5401 38.2222 39.4341 38.3458 39.4341H39.2646C39.3705 39.4341 39.4588 39.5047 39.4588 39.6108C39.6002 40.5471 40.0066 41.0065 41.8793 41.0065C43.3634 41.0065 43.9996 40.6708 43.9996 39.8757C43.9996 39.4164 43.8227 39.0808 41.5083 38.8511C39.5825 38.6566 38.3811 38.2327 38.3811 36.6957C38.3811 35.2645 39.5827 34.4164 41.5967 34.4164C43.858 34.4164 44.9712 35.1939 45.1126 36.8898C45.1126 36.943 45.0949 36.9959 45.0596 37.0489C45.0241 37.0843 44.9712 37.1196 44.9182 37.1196H43.9994C43.9111 37.1196 43.8227 37.0489 43.8051 36.9606C43.5931 35.989 43.0454 35.6709 41.5967 35.6709C39.9713 35.6709 39.7768 36.2363 39.7768 36.6602C39.7768 37.1726 40.0066 37.3316 42.1973 37.6142C44.3704 37.897 45.3953 38.3034 45.3953 39.8227C45.3775 41.3775 44.1055 42.2609 41.8616 42.2609Z" fill="#539E43"/>
<path d="M17.8161 16.007C17.8161 15.689 17.6394 15.3885 17.3568 15.2295L9.86569 10.9187C9.74187 10.8479 9.60062 10.8126 9.45938 10.7948H9.3886C9.24735 10.7948 9.10595 10.8479 8.98228 10.9187L1.49122 15.2295C1.20842 15.3885 1.03186 15.6889 1.03186 16.007L1.04959 27.5968C1.04959 27.7558 1.13795 27.9148 1.2792 27.9856C1.4206 28.0739 1.59716 28.0739 1.72098 27.9856L6.17321 25.4414C6.45586 25.2824 6.63257 24.9821 6.63257 24.6641V19.2401C6.63257 18.9221 6.80913 18.6217 7.09194 18.4628L8.98228 17.3673C9.12368 17.279 9.28266 17.2435 9.44164 17.2435C9.60062 17.2435 9.7596 17.279 9.88343 17.3673L11.7738 18.4628C12.0566 18.6217 12.2331 18.922 12.2331 19.2401V24.6641C12.2331 24.9821 12.4098 25.2824 12.6925 25.4414L17.1447 27.9856C17.2135 28.0289 17.2931 28.0519 17.3744 28.0519C17.4557 28.0519 17.5353 28.0289 17.6041 27.9856C17.7455 27.9148 17.8338 27.7558 17.8338 27.5968L17.8161 16.007ZM53.8227 0.0530828C53.6814 -0.0176943 53.5047 -0.0176943 53.3809 0.0530828C53.2397 0.14144 53.1513 0.282688 53.1513 0.441669V11.9257C53.1513 12.0317 53.0984 12.1376 52.9923 12.2084C52.8864 12.2613 52.7803 12.2613 52.6744 12.2084L50.8016 11.1307C50.6643 11.0525 50.509 11.0114 50.351 11.0114C50.193 11.0114 50.0377 11.0525 49.9004 11.1307L42.4094 15.4593C42.1267 15.6182 41.95 15.9186 41.95 16.2366V24.876C41.95 25.1939 42.1267 25.4945 42.4094 25.6534L49.9004 29.982C50.0377 30.0602 50.193 30.1013 50.351 30.1013C50.509 30.1013 50.6643 30.0602 50.8016 29.982L58.2926 25.6534C58.5753 25.4945 58.752 25.1941 58.752 24.876V3.33925C58.752 3.00355 58.5753 2.70333 58.2926 2.54419L53.8227 0.0530828ZM53.1337 22.0316C53.1337 22.1199 53.0984 22.1906 53.0276 22.2259L50.4659 23.7099C50.4301 23.7274 50.3908 23.7364 50.351 23.7364C50.3112 23.7364 50.2719 23.7274 50.2361 23.7099L47.6744 22.2259C47.6036 22.1906 47.5683 22.1022 47.5683 22.0316V19.0634C47.5683 18.975 47.6036 18.9044 47.6744 18.8691L50.2361 17.3849C50.2719 17.3675 50.3112 17.3584 50.351 17.3584C50.3908 17.3584 50.4301 17.3675 50.4659 17.3849L53.0276 18.8691C53.0984 18.9042 53.1337 18.9928 53.1337 19.0634V22.0316ZM78.7517 18.9928C79.0345 18.8338 79.1934 18.5334 79.1934 18.2153V16.1129C79.1934 15.7949 79.0167 15.4946 78.7517 15.3356L71.3136 11.0248C71.1763 10.9466 71.0211 10.9055 70.8631 10.9055C70.7051 10.9055 70.5498 10.9466 70.4125 11.0248L62.9214 15.3532C62.6386 15.5121 62.4621 15.8125 62.4621 16.1305V24.77C62.4621 25.088 62.6388 25.3884 62.9214 25.5474L70.3595 29.7876C70.6423 29.9465 70.9779 29.9465 71.243 29.7876L75.7481 27.279C75.8895 27.2082 75.9779 27.0493 75.9779 26.8903C75.9779 26.7313 75.8895 26.5723 75.7481 26.5015L68.2218 22.173C68.0804 22.0846 67.992 21.9434 67.992 21.7844V19.0813C67.992 18.9223 68.0804 18.7633 68.2218 18.6925L70.5715 17.3497C70.6403 17.3065 70.7199 17.2835 70.8012 17.2835C70.8824 17.2835 70.9621 17.3065 71.0308 17.3497L73.3807 18.6925C73.5221 18.7809 73.6103 18.9221 73.6103 19.0813V21.2014C73.6103 21.3603 73.6987 21.5193 73.8401 21.5899C73.9088 21.6333 73.9885 21.6562 74.0697 21.6562C74.151 21.6562 74.2306 21.6333 74.2994 21.5899L78.7517 18.9928Z" fill="#333333"/>
<path d="M70.7481 18.5863C70.7743 18.569 70.805 18.5598 70.8365 18.5598C70.8679 18.5598 70.8986 18.569 70.9248 18.5863L72.3559 19.4166C72.4088 19.4521 72.4441 19.505 72.4441 19.5756V21.2365C72.4441 21.3071 72.409 21.3602 72.3559 21.3955L70.9248 22.2259C70.8986 22.2431 70.8679 22.2524 70.8365 22.2524C70.805 22.2524 70.7743 22.2431 70.7481 22.2259L69.3171 21.3955C69.2641 21.3602 69.2288 21.3071 69.2288 21.2365V19.5758C69.2288 19.505 69.2639 19.4519 69.3171 19.4168L70.7481 18.5863Z" fill="#539E43"/>
<path d="M30.3424 11.0602C30.2052 10.982 30.0499 10.9409 29.8919 10.9409C29.734 10.9409 29.5787 10.982 29.4414 11.0602L22.0034 15.3531C21.7206 15.5121 21.5616 15.8125 21.5616 16.1304V24.7347C21.5616 25.0526 21.7384 25.353 22.0034 25.512L29.4414 29.8052C29.5787 29.8834 29.734 29.9245 29.8919 29.9245C30.0499 29.9245 30.2052 29.8834 30.3424 29.8052L37.7806 25.512C38.0632 25.353 38.2224 25.0526 38.2224 24.7347V16.1306C38.2224 15.8126 38.0455 15.5122 37.7806 15.3533L30.3424 11.0602Z" fill="url(#paint0_linear_30_539)"/>
<defs>
<linearGradient id="paint0_linear_30_539" x1="1157.62" y1="342.906" x2="342.346" y2="1623.95" gradientUnits="userSpaceOnUse">
<stop stop-color="#41873F"/>
<stop offset="0.3288" stop-color="#418B3D"/>
<stop offset="0.6352" stop-color="#419637"/>
<stop offset="0.9319" stop-color="#3FA92D"/>
<stop offset="1" stop-color="#3FAE2A"/>
</linearGradient>
</defs>
</svg>
