<svg width="49" height="48" viewBox="0 0 49 48" fill="none" xmlns="http://www.w3.org/2000/svg">
<path d="M37.0143 0H11.5143C5.30108 0 0.264282 5.0368 0.264282 11.25V36.75C0.264282 42.9632 5.30108 48 11.5143 48H37.0143C43.2275 48 48.2643 42.9632 48.2643 36.75V11.25C48.2643 5.0368 43.2275 0 37.0143 0Z" fill="#242938"/>
<path d="M24.2645 27.5533C26.1965 27.5533 27.7625 25.9871 27.7625 24.0553C27.7625 22.1234 26.1965 20.5573 24.2645 20.5573C22.3327 20.5573 20.7665 22.1234 20.7665 24.0553C20.7665 25.9871 22.3327 27.5533 24.2645 27.5533Z" fill="#00D8FF"/>
<path d="M24.2647 16.9431C28.9612 16.9431 33.3241 17.617 36.6138 18.7497C40.5773 20.1141 43.0143 22.1824 43.0143 24.0554C43.0143 26.0071 40.4317 28.2044 36.1752 29.6146C32.9573 30.6807 28.7228 31.2372 24.2647 31.2372C19.6938 31.2372 15.3653 30.7148 12.1111 29.6027C7.99397 28.1956 5.51428 25.9699 5.51428 24.0554C5.51428 22.1976 7.84116 20.1452 11.749 18.7829C15.0509 17.6316 19.5215 16.9431 24.2639 16.9431H24.2647Z" stroke="#00D8FF" stroke-width="1.67081"/>
<path d="M18.0732 20.5196C20.4196 16.4512 23.1828 13.0084 25.8074 10.7246C28.9694 7.97269 31.9788 6.89494 33.601 7.83037C35.2917 8.80537 35.905 12.1406 35.0003 16.5322C34.3169 19.8523 32.683 23.7984 30.4557 27.6606C28.1722 31.6202 25.5575 35.1088 22.9687 37.3716C19.6928 40.2351 16.5258 41.2714 14.8673 40.3149C13.258 39.3876 12.6427 36.3461 13.4148 32.2802C14.0671 28.8446 15.7042 24.6279 18.0725 20.5196H18.0732Z" stroke="#00D8FF" stroke-width="1.67081"/>
<path d="M18.079 27.6709C15.7261 23.607 14.1241 19.4929 13.4555 16.0785C12.6505 11.9646 13.2196 8.81927 14.8405 7.88102C16.5297 6.90302 19.7253 8.03739 23.0782 11.0145C25.6132 13.2653 28.2162 16.651 30.4499 20.5093C32.74 24.4652 34.4564 28.473 35.1241 31.8458C35.969 36.114 35.2852 39.3752 33.6282 40.3343C32.0206 41.265 29.0785 40.2797 25.9415 37.5801C23.291 35.2993 20.4552 31.7753 18.079 27.6709Z" stroke="#00D8FF" stroke-width="1.67081"/>
</svg>
